<?xml version="1.0" encoding="UTF-8" standalone="no"?>
<svg
   xmlns:dc="http://purl.org/dc/elements/1.1/"
   xmlns:cc="http://creativecommons.org/ns#"
   xmlns:rdf="http://www.w3.org/1999/02/22-rdf-syntax-ns#"
   xmlns:svg="http://www.w3.org/2000/svg"
   xmlns="http://www.w3.org/2000/svg"
   viewBox="0 0 149.99998 161.98856"
   height="161.98856"
   width="149.99998"
   xml:space="preserve"
   id="svg2"
   version="1.1"><metadata
     id="metadata8"><rdf:RDF><cc:Work
         rdf:about=""><dc:format>image/svg+xml</dc:format><dc:type
           rdf:resource="http://purl.org/dc/dcmitype/StillImage" /></cc:Work></rdf:RDF></metadata><defs
     id="defs6" /><g
     transform="matrix(1.3333333,0,0,1.3333333,0,8.7163803e-6)"
     id="g10"><g
       id="g12"><path
         id="path14"
         style="fill:#f6be00;fill-opacity:1;fill-rule:nonzero;stroke:none"
         d="m 111.938,86.199 -3.723,0.606 c 1.887,11.039 -2.399,16.648 -5.254,18.906 -2.645,2.012 -5.805,1.953 -9.68,-0.297 -0.027,-0.016 -0.051,-0.031 -0.078,-0.047 -0.121,-0.074 -0.25,-0.156 -0.371,-0.234 -14.926,-9.52 -35,-51.871 -40.859,-64.77 L 100.766,0 H 91.617 L 24.367,55.418 V 0 H 0 V 121.492 H 24.367 V 63.203 l 8,-6.621 c 2.399,9.254 8.5,22.52 15.813,33.152 19.199,27.903 38.172,38.614 53.855,26.204 8.637,-6.836 11.883,-17.184 9.903,-29.739 z" /></g></g></svg>